<?xml version="1.0" encoding="UTF-8"?>
<svg xmlns="http://www.w3.org/2000/svg" viewBox="0 0 240 260" role="img" aria-label="日本 2026 home kit">
  <defs>
    <clipPath id="shirt-japan">
      <path d="M72 42 L96 22 H144 L168 42 L210 79 L176 119 L160 94 V226 H80 V94 L64 119 L30 79 Z"/>
    </clipPath>
    <filter id="shadow-japan" x="-20%" y="-10%" width="140%" height="130%">
      <feDropShadow dx="0" dy="8" stdDeviation="7" flood-color="#111111" flood-opacity=".22"/>
    </filter>
  </defs>
  <g filter="url(#shadow-japan)">
    <path d="M72 42 L96 22 H144 L168 42 L210 79 L176 119 L160 94 V226 H80 V94 L64 119 L30 79 Z" fill="#143a8f"/>
    <g clip-path="url(#shirt-japan)"><path d="M54 42 L102 226" stroke="#6fa3dc" stroke-width="4" opacity=".42"/><path d="M72 42 L108 226" stroke="#6fa3dc" stroke-width="4" opacity=".42"/><path d="M90 42 L114 226" stroke="#6fa3dc" stroke-width="4" opacity=".42"/><path d="M108 42 L120 226" stroke="#6fa3dc" stroke-width="4" opacity=".42"/><path d="M126 42 L126 226" stroke="#6fa3dc" stroke-width="4" opacity=".42"/><path d="M144 42 L132 226" stroke="#6fa3dc" stroke-width="4" opacity=".42"/><path d="M162 42 L138 226" stroke="#6fa3dc" stroke-width="4" opacity=".42"/><path d="M180 42 L144 226" stroke="#6fa3dc" stroke-width="4" opacity=".42"/><path d="M198 42 L150 226" stroke="#6fa3dc" stroke-width="4" opacity=".42"/><circle cx="120" cy="116" r="42" fill="none" stroke="#ffffff" stroke-width="5" opacity=".28"/></g>
    <path d="M96 22 H144 L132 47 H108 Z" fill="#ffffff" opacity=".9"/>
    <path d="M96 22 H144 L132 47 H108 Z" fill="#6fa3dc" opacity=".32"/>
    <path d="M80 94 V226 H160 V94" fill="none" stroke="#000000" stroke-opacity=".13" stroke-width="2"/>
    <path d="M72 42 L96 22 H144 L168 42 L210 79 L176 119 L160 94 V226 H80 V94 L64 119 L30 79 Z" fill="none" stroke="#ffffff" stroke-opacity=".72" stroke-width="3"/>
    <path d="M72 42 L96 22 H144 L168 42 L210 79 L176 119 L160 94 V226 H80 V94 L64 119 L30 79 Z" fill="none" stroke="#111111" stroke-opacity=".18" stroke-width="1.5"/>
  </g>
</svg>
