<?xml version="1.0" encoding="UTF-8"?>
<svg xmlns="http://www.w3.org/2000/svg" viewBox="0 0 240 260" role="img" aria-label="荷兰 2026 home kit">
  <defs>
    <clipPath id="shirt-netherlands">
      <path d="M72 42 L96 22 H144 L168 42 L210 79 L176 119 L160 94 V226 H80 V94 L64 119 L30 79 Z"/>
    </clipPath>
    <filter id="shadow-netherlands" x="-20%" y="-10%" width="140%" height="130%">
      <feDropShadow dx="0" dy="8" stdDeviation="7" flood-color="#111111" flood-opacity=".22"/>
    </filter>
  </defs>
  <g filter="url(#shadow-netherlands)">
    <path d="M72 42 L96 22 H144 L168 42 L210 79 L176 119 L160 94 V226 H80 V94 L64 119 L30 79 Z" fill="#f36c21"/>
    <g clip-path="url(#shirt-netherlands)"><path d="M78 34 V226" stroke="#1b2a67" stroke-width="2.4" opacity=".55"/><path d="M92 34 V226" stroke="#1b2a67" stroke-width="2.4" opacity=".55"/><path d="M106 34 V226" stroke="#1b2a67" stroke-width="2.4" opacity=".55"/><path d="M120 34 V226" stroke="#1b2a67" stroke-width="2.4" opacity=".55"/><path d="M134 34 V226" stroke="#1b2a67" stroke-width="2.4" opacity=".55"/><path d="M148 34 V226" stroke="#1b2a67" stroke-width="2.4" opacity=".55"/><path d="M162 34 V226" stroke="#1b2a67" stroke-width="2.4" opacity=".55"/><path d="M72 58 H168" stroke="#ffffff" stroke-width="5" opacity=".35"/></g>
    <path d="M96 22 H144 L132 47 H108 Z" fill="#ffffff" opacity=".9"/>
    <path d="M96 22 H144 L132 47 H108 Z" fill="#1b2a67" opacity=".32"/>
    <path d="M80 94 V226 H160 V94" fill="none" stroke="#000000" stroke-opacity=".13" stroke-width="2"/>
    <path d="M72 42 L96 22 H144 L168 42 L210 79 L176 119 L160 94 V226 H80 V94 L64 119 L30 79 Z" fill="none" stroke="#ffffff" stroke-opacity=".72" stroke-width="3"/>
    <path d="M72 42 L96 22 H144 L168 42 L210 79 L176 119 L160 94 V226 H80 V94 L64 119 L30 79 Z" fill="none" stroke="#111111" stroke-opacity=".18" stroke-width="1.5"/>
  </g>
</svg>
