<?xml version="1.0" encoding="UTF-8"?>
<svg xmlns="http://www.w3.org/2000/svg" viewBox="0 0 240 260" role="img" aria-label="沙特阿拉伯 2026 home kit">
  <defs>
    <clipPath id="shirt-saudi-arabia">
      <path d="M72 42 L96 22 H144 L168 42 L210 79 L176 119 L160 94 V226 H80 V94 L64 119 L30 79 Z"/>
    </clipPath>
    <filter id="shadow-saudi-arabia" x="-20%" y="-10%" width="140%" height="130%">
      <feDropShadow dx="0" dy="8" stdDeviation="7" flood-color="#111111" flood-opacity=".22"/>
    </filter>
  </defs>
  <g filter="url(#shadow-saudi-arabia)">
    <path d="M72 42 L96 22 H144 L168 42 L210 79 L176 119 L160 94 V226 H80 V94 L64 119 L30 79 Z" fill="#ffffff"/>
    <g clip-path="url(#shirt-saudi-arabia)"><path d="M120 78 C100 88 92 104 88 130 C103 118 112 104 120 78 C128 104 137 118 152 130 C148 104 140 88 120 78 Z" fill="#006c35" opacity=".42"/><path d="M120 96 V196" stroke="#006c35" stroke-width="7" opacity=".38"/></g>
    <path d="M96 22 H144 L132 47 H108 Z" fill="#ffffff" opacity=".9"/>
    <path d="M96 22 H144 L132 47 H108 Z" fill="#006c35" opacity=".32"/>
    <path d="M80 94 V226 H160 V94" fill="none" stroke="#000000" stroke-opacity=".13" stroke-width="2"/>
    <path d="M72 42 L96 22 H144 L168 42 L210 79 L176 119 L160 94 V226 H80 V94 L64 119 L30 79 Z" fill="none" stroke="#ffffff" stroke-opacity=".72" stroke-width="3"/>
    <path d="M72 42 L96 22 H144 L168 42 L210 79 L176 119 L160 94 V226 H80 V94 L64 119 L30 79 Z" fill="none" stroke="#111111" stroke-opacity=".18" stroke-width="1.5"/>
  </g>
</svg>
